PathFileType	4	(X/Y/Z)	c:/Users/goper/Files/vsCode/490R/osim_files/A04/A04_ROM.trc
DataRate	CameraRate	NumFrames	NumMarkers	Units                	OrigDataRate	OrigDataStartFrame	OrigNumFrames
120.00	120.00	5	36	mm	120.0	779	1556
                Frame#	Time	LPSIS			LASIS			LTH1			LTH2			LTH3			LTH4			LLFE			LMFE			LSH1			LSH2			LSH3			LSH4			LLMAL			LMMAL			LCAL			LMTP5			LTOE			LMTP1			RPSIS			RASIS			RTH1			RTH2			RTH3			RTH4			RLFE			RMFE			RSH1			RSH2			RSH3			RSH4			RLMAL			RMMAL			RCAL			RMTP1			RTOE			RMTP5		
		X1	Y1	Z1	X2	Y2	Z2	X3	Y3	Z3	X4	Y4	Z4	X5	Y5	Z5	X6	Y6	Z6	X7	Y7	Z7	X8	Y8	Z8	X9	Y9	Z9	X10	Y10	Z10	X11	Y11	Z11	X12	Y12	Z12	X13	Y13	Z13	X14	Y14	Z14	X15	Y15	Z15	X16	Y16	Z16	X17	Y17	Z17	X18	Y18	Z18	X19	Y19	Z19	X20	Y20	Z20	X21	Y21	Z21	X22	Y22	Z22	X23	Y23	Z23	X24	Y24	Z24	X25	Y25	Z25	X26	Y26	Z26	X27	Y27	Z27	X28	Y28	Z28	X29	Y29	Z29	X30	Y30	Z30	X31	Y31	Z31	X32	Y32	Z32	X33	Y33	Z33	X34	Y34	Z34	X35	Y35	Z35	X36	Y36	Z36

779	6.48333	-374.43149	1078.36414	547.79401	-188.40508	960.08948	437.58560	-263.52261	694.56622	382.07999	-253.50409	653.98181	367.94604	-203.87341	707.09436	378.58344	-200.70038	664.65607	364.35074	-214.71851	542.51019	352.58350	-189.81920	507.21106	486.84756	-246.32742	444.31949	326.96872	-238.77394	402.46906	317.76187	-184.24361	445.31891	335.34872	-186.33150	402.91061	326.22946	-251.88792	113.25212	276.25403	-225.48093	108.93525	357.01505	-313.04282	67.12343	331.42108	-117.31475	65.71333	224.83899	-63.87289	76.43368	282.07065	-76.88078	58.69320	326.84271	-362.42810	1075.71545	656.28455	-138.61725	1001.70172	715.62720	-203.69795	729.71960	787.90790	-193.17787	688.64636	788.29224	-142.18094	739.16528	788.31018	-139.72607	691.72314	786.70276	-121.97493	551.70959	765.12628	-129.47134	544.64771	647.99243	-203.03386	346.38934	773.54633	-205.82382	298.82474	765.60077	-141.21590	337.17816	769.95685	-154.09808	290.88342	768.06476	-207.71040	103.66380	771.91785	-193.60117	108.86919	636.33221	-285.14752	59.79405	699.78552	-69.20097	56.22491	644.28827	-38.07643	75.48115	689.23334	-70.21732	49.22762	764.67096
780	6.49167	-376.06821	1079.12024	547.59186	-191.00879	959.65875	436.91238	-266.25363	694.43787	382.58719	-256.22495	653.92456	368.35254	-206.64905	707.15320	378.85471	-203.37956	664.66345	364.57858	-217.01640	542.52130	352.79440	-192.01588	507.28918	487.05609	-248.15723	444.16830	327.20334	-240.43451	402.39383	317.91849	-186.08467	445.47351	335.53394	-187.98100	403.06494	326.49768	-252.01315	113.27278	276.35416	-225.68440	108.94292	357.07205	-313.12878	66.98608	331.46063	-117.41878	65.85909	224.95711	-63.99503	76.56782	282.16901	-76.94583	58.79239	326.92157	-363.73532	1076.46838	656.11639	-139.89728	1001.15729	714.81403	-204.79211	729.90497	787.02441	-194.16147	688.76788	787.46423	-143.23651	739.35840	787.02545	-140.79132	691.88519	785.49261	-123.24986	551.91589	764.01276	-132.02429	544.72955	646.72888	-204.04512	346.39438	772.99152	-206.58699	298.87143	765.21167	-142.10376	337.35278	769.36841	-154.94135	291.07303	767.63916	-207.98203	103.59835	771.83240	-193.95464	108.62433	636.14648	-285.23553	59.49076	699.71387	-69.31567	56.28973	644.24335	-38.18989	75.64417	689.19641	-70.26713	49.36382	764.62073
781	6.50000	-377.45950	1079.84827	547.33295	-193.55386	959.27271	436.20807	-269.04486	694.28003	383.01196	-259.06961	653.76746	368.69852	-209.59593	707.15118	379.03812	-206.23805	664.66339	364.76807	-219.42188	542.52069	352.97147	-194.38611	507.35434	487.25754	-250.10349	444.02661	327.38483	-242.20659	402.24164	318.08487	-188.03802	445.59833	335.73083	-189.84233	403.16122	326.68851	-252.12476	113.28825	276.41953	-225.82649	108.93401	357.10410	-313.22336	66.83323	331.49814	-117.48956	66.07536	224.99840	-64.05113	76.79540	282.23175	-77.04042	58.92253	326.97495	-364.95554	1077.06702	655.72571	-140.94185	1000.78308	713.96582	-205.75310	730.08636	786.12305	-195.08836	688.95050	786.52655	-144.23230	739.53510	785.71564	-141.73657	692.11108	784.16162	-124.35555	552.19562	762.95245	-134.31534	544.69061	645.17993	-204.98868	346.40686	772.37122	-207.48196	298.72110	764.62219	-143.03201	337.51257	768.80151	-155.73250	291.18210	767.11615	-208.24394	103.62065	771.70105	-194.20723	108.44085	635.95697	-285.26593	59.22670	699.62561	-69.41393	56.40660	644.19031	-38.27911	75.85076	689.11884	-70.35196	49.52090	764.51819
782	6.50833	-378.96985	1080.67261	546.92194	-195.91310	958.92145	435.37677	-271.85379	694.20990	383.22711	-261.77142	653.72223	368.92380	-212.38747	707.16937	379.11234	-208.97136	664.67651	364.82056	-221.83739	542.49725	353.06763	-196.68324	507.40799	487.39514	-252.04411	443.86569	327.43085	-243.86229	402.12616	318.15967	-189.98726	445.75372	335.87045	-191.47736	403.34158	326.73935	-252.33499	113.19431	276.46869	-225.86029	108.91960	357.09482	-313.38135	66.66743	331.52054	-117.54633	66.24713	225.03191	-64.11560	77.01311	282.27029	-77.11625	59.07149	327.01675	-366.07501	1077.79761	655.29279	-141.96518	1000.38074	713.03406	-206.44206	730.20593	785.14490	-195.83054	689.16138	785.49744	-144.94261	739.78864	784.29895	-142.63177	692.23492	782.87567	-125.23895	552.37915	761.87537	-136.48116	544.57031	644.06030	-205.66055	346.50195	771.82391	-208.10413	298.76251	764.10400	-143.72285	337.69577	768.21710	-156.24832	291.33340	766.61011	-208.35306	103.70139	771.55273	-194.43155	108.27620	635.77979	-285.41006	59.06510	699.55487	-69.44090	56.49415	644.12646	-38.33623	75.99806	689.04492	-70.34917	49.68159	764.39960
783	6.51667	-380.17822	1081.38000	546.51172	-198.11606	958.53235	434.54715	-274.71091	694.11304	383.25262	-264.51251	653.60724	368.92285	-215.30644	706.98395	379.06543	-211.76175	664.62231	364.81659	-224.23235	542.44287	353.05441	-198.97887	507.51584	487.37289	-254.07133	443.68643	327.43695	-245.64969	402.04123	318.15536	-192.03778	445.84598	335.88736	-193.38040	403.42035	326.80066	-252.55965	113.11311	276.48477	-226.09102	108.91003	357.08279	-313.77426	66.67376	331.56366	-117.64729	66.43584	225.07860	-64.26856	77.22456	282.36432	-77.24909	59.22965	327.07053	-367.14554	1078.42383	654.80109	-142.83818	999.93799	712.07922	-207.06813	730.34503	784.07648	-196.38013	689.24677	784.52734	-145.58540	739.95312	782.95111	-142.86218	692.44214	781.49506	-125.77074	552.64130	760.81165	-138.13776	544.46863	642.99823	-206.11316	346.58469	771.27032	-208.45692	298.84222	763.64984	-144.13069	337.91827	767.68280	-156.68907	291.47681	766.12897	-208.47870	103.80225	771.41010	-194.55980	108.13645	635.59766	-285.45972	58.96908	699.49915	-69.50620	56.50671	644.04468	-38.37888	76.09354	688.98840	-70.40669	49.79750	764.32581
